<svg xmlns="http://www.w3.org/2000/svg" width="512" height="512" viewBox="0 0 512 512" role="img" aria-labelledby="title desc">
  <title id="title">strapi-provider-upload-azure-clean icon</title>
  <desc id="desc">Azure-style storage container with a clean link path and Strapi accent.</desc>
  <rect width="512" height="512" rx="112" fill="#F8FAFC"/>
  <rect x="64" y="76" width="384" height="360" rx="88" fill="#0078D4"/>
  <rect x="104" y="132" width="304" height="248" rx="56" fill="#FFFFFF"/>
  <rect x="132" y="170" width="248" height="42" rx="21" fill="#E0F2FE"/>
  <rect x="132" y="235" width="248" height="42" rx="21" fill="#E0F2FE"/>
  <rect x="132" y="300" width="248" height="42" rx="21" fill="#E0F2FE"/>
  <circle cx="170" cy="191" r="13" fill="#0078D4"/>
  <circle cx="170" cy="256" r="13" fill="#0078D4"/>
  <circle cx="170" cy="321" r="13" fill="#0078D4"/>
  <path d="M260 184H312C336.301 184 356 203.699 356 228C356 252.301 336.301 272 312 272H282" fill="none" stroke="#10B981" stroke-width="28" stroke-linecap="round"/>
  <path d="M252 328H200C175.699 328 156 308.301 156 284C156 259.699 175.699 240 200 240H230" fill="none" stroke="#10B981" stroke-width="28" stroke-linecap="round"/>
  <path d="M220 256H292" fill="none" stroke="#4945FF" stroke-width="30" stroke-linecap="round"/>
  <path d="M354 122L408 176L354 230V194H324V158H354V122Z" fill="#4945FF"/>
  <path d="M112 392H400" fill="none" stroke="#0F172A" stroke-width="20" stroke-linecap="round" opacity="0.22"/>
</svg>
